<?xml version="1.0" standalone="no"?><svg xmlns="http://www.w3.org/2000/svg" viewBox="0 0 1440 320"><path fill="#a2d9ff" fill-opacity="0.5" d="M0,160L16,181.3C32,203,64,245,96,256C128,267,160,245,192,229.3C224,213,256,203,288,181.3C320,160,352,128,384,138.7C416,149,448,203,480,192C512,181,544,107,576,80C608,53,640,75,672,74.7C704,75,736,53,768,64C800,75,832,117,864,128C896,139,928,117,960,122.7C992,128,1024,160,1056,160C1088,160,1120,128,1152,122.7C1184,117,1216,139,1248,176C1280,213,1312,267,1344,282.7C1376,299,1408,277,1424,266.7L1440,256L1440,320L1424,320C1408,320,1376,320,1344,320C1312,320,1280,320,1248,320C1216,320,1184,320,1152,320C1120,320,1088,320,1056,320C1024,320,992,320,960,320C928,320,896,320,864,320C832,320,800,320,768,320C736,320,704,320,672,320C640,320,608,320,576,320C544,320,512,320,480,320C448,320,416,320,384,320C352,320,320,320,288,320C256,320,224,320,192,320C160,320,128,320,96,320C64,320,32,320,16,320L0,320Z"></path></svg>